<svg width="40" height="40" viewBox="0 0 40 40" fill="none" xmlns="http://www.w3.org/2000/svg">
<g clip-path="url(#clip0_1_627)">
<path d="M20 0C16.0443 0 12.1775 1.17298 8.88856 3.37061C5.59958 5.56824 3.03613 8.69181 1.52237 12.3463C0.00861991 16.0009 -0.387447 20.0222 0.384258 23.9018C1.15596 27.7814 3.06078 31.3451 5.85783 34.1421C8.65488 36.9392 12.2185 38.844 16.0982 39.6157C19.9778 40.3874 23.9991 39.9913 27.6536 38.4776C31.3082 36.9638 34.4317 34.4004 36.6294 31.1114C38.827 27.8224 40 23.9556 40 20C39.9939 14.6975 37.8848 9.61396 34.1354 5.86455C30.386 2.11513 25.3024 0.0060496 20 0V0ZM33.6663 9.55886L29.1748 17.248L20.848 2.816C23.3461 2.94142 25.7869 3.60961 28.0006 4.77408C30.2143 5.93855 32.1477 7.57134 33.6663 9.55886ZM16.2765 26.5143L12.4731 19.9931L16.2285 13.4857H23.7714L27.5588 20.0411L23.7714 26.5143H16.2765ZM17.6891 2.95543L22.1463 10.6857H5.54968C6.89535 8.59744 8.67714 6.82523 10.7726 5.49084C12.8681 4.15644 15.2277 3.2915 17.6891 2.95543ZM4.08225 13.4857H12.9965L4.68796 27.8629C3.43453 25.4318 2.78386 22.7351 2.79082 20C2.7979 17.7657 3.23641 15.5538 4.08225 13.4857ZM6.39996 30.5143L10.8571 22.7909L14.0891 28.3429C14.1514 28.5482 14.261 28.7361 14.4091 28.8914L19.248 37.2C16.7494 37.0855 14.3057 36.4281 12.0869 35.2735C9.86813 34.1189 7.92749 32.4949 6.39996 30.5143ZM22.4 37.0286L17.9017 29.3234H34.4571C33.114 31.3941 31.343 33.1532 29.2633 34.4823C27.1836 35.8113 24.8433 36.6796 22.4 37.0286ZM35.9177 26.5143H27.0034L35.3371 12.2286C36.4509 14.4296 37.0784 16.8444 37.177 19.3093C37.2756 21.7741 36.843 24.2313 35.9085 26.5143H35.9177Z" fill="white"/>
</g>
<defs>
<clipPath id="clip0_1_627">
<rect width="40" height="40" fill="white"/>
</clipPath>
</defs>
</svg>
