<svg width="64" height="69" viewBox="0 0 64 69" fill="none" xmlns="http://www.w3.org/2000/svg">
<path d="M32 0C26.6599 0 21.4397 1.4369 16.9996 4.12899C12.5595 6.82109 9.09883 10.6475 7.05526 15.1243C5.0117 19.601 4.47701 24.5272 5.51881 29.2797C6.56061 34.0322 9.13211 38.3977 12.9081 41.8241C16.6841 45.2505 21.4951 47.5839 26.7326 48.5292C31.9701 49.4746 37.3988 48.9894 42.3325 47.135C47.2661 45.2807 51.4829 42.1405 54.4497 38.1115C57.4165 34.0825 59 29.3456 59 24.5C58.9918 18.0045 56.1446 11.7771 51.0829 7.18407C46.0211 2.59103 39.1583 0.00741076 32 0ZM50.4526 11.7096L44.3922 21.1288L33.1479 3.4496C36.5204 3.60287 39.8157 4.42124 42.8042 5.84774C45.7927 7.27425 48.4027 9.27462 50.4526 11.7096ZM26.9765 32.48L21.8388 24.4804L26.9209 16.52H37.1038L42.2168 24.5504L37.1038 32.48H26.9765ZM28.8803 3.6092L34.8975 13.0788H12.4983C14.3145 10.5209 16.7194 8.35002 19.5477 6.71538C22.3761 5.08075 25.561 4.02109 28.8834 3.6092H28.8803ZM10.5111 16.4892H22.5454L11.3257 34.1012C9.63473 31.1266 8.75435 27.8274 8.75841 24.4804C8.77214 21.7493 9.36728 19.0463 10.5111 16.52V16.4892ZM13.6308 37.3604L19.6572 27.8992L24.0203 34.72C24.1054 34.9712 24.2532 35.2012 24.4524 35.392L30.9879 45.57C27.6135 45.4333 24.3126 44.6307 21.3149 43.2182C18.3173 41.8057 15.695 39.8172 13.6308 37.3912V37.3604ZM35.2307 45.3516L29.1611 35.9212H51.511C49.6985 38.4572 47.3086 40.6116 44.5021 42.2397C41.6956 43.8677 38.5374 44.9317 35.24 45.36L35.2307 45.3516ZM53.4797 32.4716H41.4454L52.6959 14.9716C54.1996 17.6679 55.0467 20.626 55.1798 23.6454C55.3129 26.6649 54.7288 29.675 53.4673 32.4716H53.4797Z" fill="white"/>
<path d="M4.1789 68.7423L2.94954 65.8052V68.7423H0.912842V60.5554H3.94037C4.40559 60.5387 4.86745 60.6595 5.28899 60.9081C5.6382 61.1159 5.93042 61.45 6.12844 61.8678C6.31817 62.2844 6.41486 62.7579 6.40826 63.2381C6.41374 63.7565 6.28668 64.2633 6.04587 64.6835C5.7877 65.1238 5.4218 65.4448 5.00459 65.597L6.41743 68.7307L4.1789 68.7423ZM2.94954 64.0938H3.75688C3.91735 64.1099 4.07662 64.0479 4.20183 63.9203C4.25482 63.8511 4.29535 63.7682 4.32068 63.6774C4.346 63.5866 4.35554 63.49 4.34862 63.3942C4.35253 63.3008 4.3411 63.2075 4.31505 63.1199C4.28901 63.0324 4.2489 62.9525 4.19725 62.8854C4.07694 62.7539 3.92038 62.6875 3.76147 62.7004H2.94954V64.0938Z" fill="white"/>
<path d="M11.1147 62.5906V63.6081H13.133V65.5392H11.1147V66.6956H13.4083V68.7423H9.078V60.5554H13.4083V62.579L11.1147 62.5906Z" fill="white"/>
<path d="M20.9266 67.5975C20.7201 67.9907 20.4289 68.3016 20.0871 68.4937C19.6747 68.7252 19.2265 68.8378 18.7752 68.8232C18.0927 68.8586 17.4191 68.6175 16.8532 68.1352C16.6007 67.9019 16.395 67.5974 16.2524 67.246C16.1098 66.8947 16.0344 66.5062 16.0321 66.1116H18.1926C18.2225 66.5828 18.3899 66.817 18.6881 66.817C18.7794 66.8221 18.8691 66.7851 18.9403 66.7129C18.9721 66.6764 18.9972 66.6317 19.0138 66.5818C19.0304 66.5318 19.0382 66.4779 19.0367 66.4238C19.0361 66.3283 19.0143 66.2349 18.9738 66.1542C18.9332 66.0734 18.8756 66.0086 18.8073 65.9671C18.5642 65.8112 18.311 65.6816 18.0504 65.5797C17.6987 65.4419 17.3566 65.2678 17.0275 65.0593C16.7447 64.8714 16.5011 64.602 16.3165 64.273C16.1146 63.8654 16.0095 63.3935 16.0136 62.913C16.0177 62.4325 16.1307 61.9635 16.3394 61.5614C16.5671 61.1787 16.8754 60.8842 17.2293 60.7115C17.6342 60.5131 18.0656 60.415 18.5 60.4224C19.1612 60.3784 19.8147 60.619 20.3532 61.1047C20.585 61.3431 20.7725 61.6426 20.9025 61.9823C21.0325 62.3219 21.1018 62.6934 21.1055 63.0704H18.9128C18.883 62.6397 18.7431 62.4229 18.4908 62.4229C18.4131 62.4203 18.3375 62.4555 18.2798 62.5212C18.2512 62.5598 18.2292 62.6054 18.215 62.655C18.2008 62.7047 18.1948 62.7575 18.1972 62.8103C18.1994 62.9024 18.222 62.9919 18.2625 63.0686C18.3031 63.1452 18.3599 63.206 18.4266 63.2439C18.6604 63.3993 18.9044 63.5289 19.1559 63.6313C19.5096 63.7842 19.8544 63.9678 20.1881 64.1805C20.4716 64.3744 20.7164 64.6473 20.9037 64.9784C21.1185 65.374 21.2263 65.8465 21.211 66.3255C21.2172 66.7755 21.1183 67.2178 20.9266 67.5975Z" fill="white"/>
<path d="M28.7936 60.9543C29.2959 61.3066 29.7128 61.8242 30 62.4518C30.2935 63.1146 30.4475 63.8609 30.4475 64.6199C30.4475 65.3789 30.2935 66.1253 30 66.7881C29.7125 67.4189 29.2938 67.9387 28.789 68.2913C28.2746 68.6479 27.6971 68.8348 27.1101 68.8348C26.5231 68.8348 25.9456 68.6479 25.4312 68.2913C24.926 67.9373 24.5061 67.4179 24.2156 66.7881C23.9191 66.1266 23.7634 65.3797 23.7634 64.6199C23.7634 63.8602 23.9191 63.1133 24.2156 62.4518C24.5067 61.8241 24.9266 61.3068 25.4312 60.9543C25.9473 60.6014 26.5252 60.4165 27.1124 60.4165C27.6996 60.4165 28.2775 60.6014 28.7936 60.9543ZM26.1697 63.267C25.9361 63.6478 25.8188 64.1219 25.8395 64.6026C25.8192 65.0797 25.9365 65.5499 26.1697 65.9266C26.2931 66.0825 26.4397 66.2063 26.601 66.2907C26.7624 66.3751 26.9354 66.4185 27.1101 66.4185C27.2848 66.4185 27.4578 66.3751 27.6192 66.2907C27.7805 66.2063 27.9271 66.0825 28.0505 65.9266C28.2837 65.5499 28.401 65.0797 28.3807 64.6026C28.4013 64.1219 28.2841 63.6478 28.0505 63.267C27.9271 63.1111 27.7805 62.9874 27.6192 62.9029C27.4578 62.8185 27.2848 62.7751 27.1101 62.7751C26.9354 62.7751 26.7624 62.8185 26.601 62.9029C26.4397 62.9874 26.2931 63.1111 26.1697 63.267Z" fill="white"/>
<path d="M35.1881 60.5554V65.1808C35.1737 65.4987 35.243 65.8137 35.3853 66.0769C35.463 66.1921 35.5614 66.2821 35.6723 66.3395C35.7833 66.3968 35.9035 66.4198 36.0229 66.4065C36.1443 66.4189 36.2664 66.3955 36.3794 66.3383C36.4924 66.2811 36.5934 66.1917 36.6743 66.0769C36.8246 65.8178 36.8992 65.5012 36.8853 65.1808V60.5554H38.9129V65.1808C38.9295 65.8773 38.7964 66.5665 38.5275 67.1754C38.2825 67.7136 37.915 68.1466 37.4725 68.4185C37.0064 68.7018 36.4944 68.8443 35.9771 68.8348C35.4698 68.8474 34.9676 68.7046 34.5138 68.4185C34.0899 68.1431 33.7427 67.7116 33.5184 67.1812C33.2666 66.5633 33.1435 65.875 33.1606 65.1808V60.5554H35.1881Z" fill="white"/>
<path d="M45.078 68.7423L43.8486 65.8052V68.7423H41.8165V60.5554H44.844C45.3092 60.5396 45.7709 60.6604 46.1927 60.9081C46.5419 61.1159 46.8341 61.45 47.0321 61.8678C47.2209 62.2849 47.3175 62.758 47.3119 63.2381C47.3164 63.7563 47.1895 64.2627 46.9496 64.6835C46.6909 65.1232 46.3252 65.444 45.9083 65.597L47.3211 68.7423H45.078ZM43.8486 64.0938H44.656C44.8142 64.1092 44.9713 64.0494 45.0963 63.9261C45.1493 63.8568 45.1899 63.774 45.2152 63.6832C45.2405 63.5924 45.25 63.4958 45.2431 63.4C45.247 63.3066 45.2356 63.2132 45.2096 63.1257C45.1835 63.0381 45.1434 62.9583 45.0918 62.8912C44.9714 62.7597 44.8149 62.6932 44.656 62.7062H43.8486V64.0938Z" fill="white"/>
<path d="M54.5138 60.8734C54.945 61.1267 55.3177 61.5148 55.5964 62.0008C55.8811 62.5072 56.0709 63.0884 56.1514 63.7006H54.0046C53.9157 63.4449 53.7709 63.2263 53.5872 63.0704C53.4032 62.9191 53.1876 62.8406 52.9679 62.8449C52.8116 62.8376 52.6561 62.8779 52.5148 62.9625C52.3734 63.047 52.2503 63.1733 52.156 63.3306C51.963 63.7209 51.8608 64.1716 51.8608 64.6315C51.8608 65.0914 51.963 65.542 52.156 65.9324C52.2503 66.0897 52.3734 66.216 52.5148 66.3005C52.6561 66.3851 52.8116 66.4254 52.9679 66.418C53.1876 66.4224 53.4032 66.3439 53.5872 66.1925C53.7717 66.0377 53.9167 65.8188 54.0046 65.5623H56.1514C56.0709 66.1746 55.8811 66.7558 55.5964 67.2622C55.3177 67.7482 54.945 68.1363 54.5138 68.3896C54.0408 68.6635 53.525 68.7999 53.0046 68.7885C52.4088 68.8077 51.8197 68.6261 51.2982 68.2624C50.8197 67.9198 50.432 67.407 50.1835 66.7881C49.9255 66.1116 49.7915 65.3706 49.7915 64.6199C49.7915 63.8693 49.9255 63.1283 50.1835 62.4518C50.4333 61.8341 50.8207 61.3217 51.2982 60.9775C51.8201 60.6151 52.4089 60.4336 53.0046 60.4513C53.5264 60.4472 54.0423 60.5915 54.5138 60.8734Z" fill="white"/>
<path d="M60.9404 62.5906V63.6081H62.9587V65.5392H60.9404V66.6956H63.234V68.7423H58.9037V60.5554H63.234V62.579L60.9404 62.5906Z" fill="white"/>
</svg>
